<svg width="210" height="111" viewBox="0 0 210 111" fill="none" xmlns="http://www.w3.org/2000/svg">
<path d="M38.7305 9.83008C43.6133 10.123 47.7148 10.3672 51.0352 10.5625C54.4531 10.6602 57.2852 10.7578 59.5312 10.8555C62.0703 10.9531 64.2188 10.9531 65.9766 10.8555C67.7344 10.7578 70.127 10.5137 73.1543 10.123C75.6934 9.83008 79.0625 9.39062 83.2617 8.80469C87.5586 8.12109 92.8809 7.24219 99.2285 6.16797C96.9824 8.41406 95.2246 10.4648 93.9551 12.3203C92.7832 14.0781 91.8555 15.5918 91.1719 16.8613C90.3906 18.4238 89.8535 19.7422 89.5605 20.8164C89.3652 21.793 89.5605 24.2344 90.1465 28.1406C90.7324 32.0469 91.5625 36.6855 92.6367 42.0566C93.7109 47.3301 94.8828 52.9941 96.1523 59.0488C97.4219 65.0059 98.6914 70.6211 99.9609 75.8945C101.23 81.0703 102.354 85.5137 103.33 89.2246C104.404 92.8379 105.186 94.9863 105.674 95.6699C107.139 97.7207 108.066 99.0879 108.457 99.7715C108.848 100.357 109.531 100.895 110.508 101.383C110.898 101.578 111.533 101.871 112.412 102.262C113.193 102.652 114.219 103.141 115.488 103.727C116.855 104.312 118.564 104.996 120.615 105.777C116.807 105.973 113.535 106.119 110.801 106.217C108.066 106.217 105.82 106.266 104.062 106.363C102.012 106.461 100.254 106.559 98.7891 106.656C97.3242 106.656 95.5664 106.754 93.5156 106.949C91.7578 107.145 89.4629 107.34 86.6309 107.535C83.8965 107.73 80.6738 107.926 76.9629 108.121C78.916 106.754 80.4785 105.533 81.6504 104.459C82.9199 103.287 83.8965 102.311 84.5801 101.529C85.3613 100.553 85.8984 99.6738 86.1914 98.8926C86.3867 98.0137 86.5332 96.6953 86.6309 94.9375C86.7285 93.375 86.7285 91.3242 86.6309 88.7852C86.5332 86.1484 86.2891 82.7305 85.8984 78.5312L47.373 82.4863C46.3965 84.1465 45.6641 85.6113 45.1758 86.8809C44.6875 88.0527 44.3457 89.0781 44.1504 89.957C43.8574 91.0312 43.7598 91.9102 43.8574 92.5938C44.0527 93.375 44.3945 94.3027 44.8828 95.377C45.3711 96.3535 46.0547 97.5254 46.9336 98.8926C47.9102 100.162 49.3262 101.676 51.1816 103.434C48.7402 103.336 46.25 103.287 43.7109 103.287C41.1719 103.287 38.8281 103.336 36.6797 103.434C34.1406 103.531 31.6504 103.629 29.209 103.727C26.7676 103.824 23.9844 103.971 20.8594 104.166C18.2227 104.361 15.1465 104.605 11.6309 104.898C8.01758 105.094 4.16016 105.387 0.0585938 105.777C2.59766 104.605 4.74609 103.434 6.50391 102.262C8.26172 100.992 9.72656 99.8203 10.8984 98.7461C12.2656 97.5742 13.4375 96.4512 14.4141 95.377C15.0977 94.4004 16.4648 92.1543 18.5156 88.6387C20.5664 85.0254 22.8613 80.7773 25.4004 75.8945C28.0371 71.0117 30.7715 65.7871 33.6035 60.2207C36.5332 54.6543 39.1699 49.4297 41.5137 44.5469C43.8574 39.5664 45.7617 35.2695 47.2266 31.6562C48.6914 28.043 49.4238 25.6992 49.4238 24.625C49.2285 23.3555 48.7402 21.9395 47.959 20.377C47.2754 19.0098 46.2012 17.4473 44.7363 15.6895C43.3691 13.9316 41.3672 11.9785 38.7305 9.83008ZM84.1406 67.6914C83.5547 64.2734 83.0176 61.3438 82.5293 58.9023C82.041 56.3633 81.6504 54.2637 81.3574 52.6035C80.9668 50.6504 80.6738 48.9414 80.4785 47.4766C80.1855 46.1094 79.8438 44.3516 79.4531 42.2031C79.0625 40.3477 78.5742 38.0527 77.9883 35.3184C77.5 32.4863 76.8652 29.1172 76.084 25.2109C70.5176 36.3438 66.1719 44.9863 63.0469 51.1387C60.0195 57.1934 57.8223 61.6367 56.4551 64.4688C54.7949 67.7891 53.8672 69.7422 53.6719 70.3281L84.1406 67.6914ZM157.383 0.748047C160.801 0.748047 163.877 1.33398 166.611 2.50586C169.443 3.58008 172.031 4.80078 174.375 6.16797C176.816 7.53516 179.111 8.80469 181.26 9.97656C183.408 11.0508 185.605 11.5879 187.852 11.5879C189.609 11.4902 191.611 11.2461 193.857 10.8555C195.811 10.4648 198.057 9.87891 200.596 9.09766C203.232 8.21875 206.162 6.94922 209.385 5.28906C206.162 8.41406 203.525 11.0508 201.475 13.1992C199.521 15.25 198.008 16.959 196.934 18.3262C195.664 19.8887 194.736 21.1094 194.15 21.9883C193.564 23.0625 192.686 24.6738 191.514 26.8223C190.439 28.7754 188.975 31.4121 187.119 34.7324C185.264 37.9551 182.92 42.2031 180.088 47.4766C180.088 40.7383 179.404 35.5137 178.037 31.8027C176.768 28.0918 175.352 25.2598 173.789 23.3066C171.934 21.0605 169.834 19.6445 167.49 19.0586C165.342 18.7656 163.193 19.1562 161.045 20.2305C158.896 21.207 156.748 22.6719 154.6 24.625C152.549 26.5781 150.547 28.9219 148.594 31.6562C146.738 34.293 145.029 37.0762 143.467 40.0059C142.002 42.9355 140.781 45.9141 139.805 48.9414C138.828 51.8711 138.193 54.6055 137.9 57.1445C137.607 59.3906 137.559 62.0273 137.754 65.0547C137.949 67.9844 138.389 71.0117 139.072 74.1367C139.756 77.1641 140.635 80.1426 141.709 83.0723C142.783 86.002 144.102 88.6387 145.664 90.9824C147.324 93.2285 149.18 95.084 151.23 96.5488C153.281 97.916 155.625 98.5508 158.262 98.4531C161.191 98.2578 164.072 97.3789 166.904 95.8164C169.346 94.5469 171.836 92.5938 174.375 89.957C176.914 87.2227 179.111 83.3652 180.967 78.3848L202.646 82.3398C196.396 89.957 190.293 95.6699 184.336 99.4785C178.477 103.287 173.203 105.973 168.516 107.535C163.047 109.293 157.871 110.123 152.988 110.025C146.836 109.342 141.074 107.486 135.703 104.459C130.332 101.432 125.693 97.7695 121.787 93.4727C117.979 89.0781 115 84.293 112.852 79.1172C110.703 73.9414 109.775 68.8633 110.068 63.8828C110.264 60.5625 110.947 56.7051 112.119 52.3105C113.291 47.8184 114.854 43.2285 116.807 38.541C118.857 33.8535 121.299 29.2637 124.131 24.7715C126.963 20.2793 130.088 16.2754 133.506 12.7598C136.924 9.14648 140.635 6.26562 144.639 4.11719C148.74 1.87109 152.988 0.748047 157.383 0.748047Z" fill="url(#paint0_linear_76_6)"/>
<defs>
<linearGradient id="paint0_linear_76_6" x1="108.5" y1="-34" x2="109" y2="109" gradientUnits="userSpaceOnUse">
<stop offset="0.281211" stop-color="#291010"/>
<stop offset="1" stop-color="#8F3636"/>
</linearGradient>
</defs>
</svg>
